<?xml version="1.0" encoding="UTF-8" standalone="no"?>
<!-- Created with Inkscape (http://www.inkscape.org/) -->

<svg
   width="173.39734mm"
   height="173.39734mm"
   viewBox="0 0 173.39734 173.39734"
   version="1.1"
   id="svg1"
   xml:space="preserve"
   xmlns:inkscape="http://www.inkscape.org/namespaces/inkscape"
   xmlns:sodipodi="http://sodipodi.sourceforge.net/DTD/sodipodi-0.dtd"
   xmlns="http://www.w3.org/2000/svg"
   xmlns:svg="http://www.w3.org/2000/svg"><sodipodi:namedview
     id="namedview1"
     pagecolor="#ffffff"
     bordercolor="#000000"
     borderopacity="0.25"
     inkscape:showpageshadow="2"
     inkscape:pageopacity="0.0"
     inkscape:pagecheckerboard="0"
     inkscape:deskcolor="#d1d1d1"
     inkscape:document-units="mm"
     inkscape:export-bgcolor="#ffffffff"><inkscape:page
       x="-1.4059931e-14"
       y="0"
       width="173.39732"
       height="173.39734"
       id="page2"
       margin="0"
       bleed="0" /></sodipodi:namedview><defs
     id="defs1" /><g
     inkscape:label="Layer 1"
     inkscape:groupmode="layer"
     id="layer1"
     transform="translate(-20.075422,-67.997172)"><g
       style="overflow:hidden;fill:currentColor"
       id="g1"
       transform="matrix(0.26458333,0,0,0.26458333,-27.12182,16.969254)"><path
         d="m 649.42328,520.5414 c 0,-79.0528 -64.32768,-143.36 -143.36,-143.36 -79.03232,0 -143.36,64.3072 -143.36,143.36 0,79.03232 64.32768,143.36 143.36,143.36 79.03232,0 143.36,-64.32768 143.36,-143.36 z m -143.36,102.4 c -56.46336,0 -102.4,-45.93664 -102.4,-102.4 0,-56.46336 45.93664,-102.4 102.4,-102.4 56.46336,0 102.4,45.93664 102.4,102.4 0,56.46336 -45.93664,102.4 -102.4,102.4 z m -20.48,79.17568 V 827.7414 a 20.48,20.48 0 1 0 40.96,0 V 702.11708 a 20.48,20.48 0 1 0 -40.96,0 z m 0,-488.77568 v 125.62432 a 20.48,20.48 0 1 0 40.96,0 V 213.3414 a 20.48,20.48 0 1 0 -40.96,0 z m 223.232,538.89024 a 20.41856,20.41856 0 0 0 28.95872,0 20.45952,20.45952 0 0 0 0,-28.95872 l -88.84224,-88.82176 a 20.476907,20.476907 0 1 0 -28.95872,28.95872 z M 274.37304,288.83068 a 20.45952,20.45952 0 0 0 0,28.95872 l 88.84224,88.82176 a 20.41856,20.41856 0 0 0 28.95872,0 20.45952,20.45952 0 0 0 0,-28.95872 l -88.84224,-88.82176 a 20.48,20.48 0 0 0 -28.95872,0 z M 813.26328,500.0614 H 687.63896 a 20.48,20.48 0 1 0 0,40.96 h 125.62432 a 20.48,20.48 0 1 0 0,-40.96 z m -634.88,20.48 a 20.48,20.48 0 0 0 20.48,20.48 H 324.4876 a 20.48,20.48 0 1 0 0,-40.96 H 198.86328 a 20.48,20.48 0 0 0 -20.48,20.48 z m 530.432,-231.71072 -88.84224,88.84224 a 20.476907,20.476907 0 1 0 28.95872,28.95872 L 737.774,317.7894 A 20.476907,20.476907 0 1 0 708.81528,288.83068 Z M 288.8524,758.23228 a 20.41856,20.41856 0 0 0 14.47936,-6.00064 L 392.174,663.40988 a 20.476907,20.476907 0 1 0 -28.95872,-28.95872 l -88.84224,88.82176 a 20.45952,20.45952 0 0 0 14.47936,34.95936 z"
         fill="#231f20"
         id="path1" /></g></g></svg>
